<svg width="296" height="296" viewBox="0 0 296 296" fill="none" xmlns="http://www.w3.org/2000/svg">
<path d="M250.857 44.725C233.066 62.516 212.811 82.771 194.995 100.587" stroke="#F4B5DC" stroke-width="12.9451" stroke-linecap="round" stroke-linejoin="round"/>
<path d="M288.582 110.066C264.278 116.578 236.611 123.992 212.273 130.513L288.582 110.066Z" fill="#00256D"/>
<path d="M288.582 110.066C264.278 116.578 236.611 123.992 212.273 130.513" stroke="#79F87C" stroke-width="12.9451" stroke-linecap="round" stroke-linejoin="round"/>
<path d="M288.582 185.516C264.278 179.004 236.611 171.59 212.273 165.069" stroke="#E14646" stroke-width="12.9451" stroke-linecap="round" stroke-linejoin="round"/>
<path d="M250.857 250.857C233.066 233.066 212.811 212.811 194.995 194.995" stroke="#FFFFA3" stroke-width="12.9451" stroke-linecap="round" stroke-linejoin="round"/>
<path d="M185.516 288.582C179.004 264.278 171.59 236.611 165.069 212.273" stroke="#62C5F7" stroke-width="12.9451" stroke-linecap="round" stroke-linejoin="round"/>
<path d="M110.066 288.582C116.578 264.278 123.992 236.611 130.513 212.273L110.066 288.582Z" fill="#00256D"/>
<path d="M110.066 288.582C116.578 264.278 123.992 236.611 130.513 212.273" stroke="#79F87C" stroke-width="12.9451" stroke-linecap="round" stroke-linejoin="round"/>
<path d="M44.725 250.857C62.516 233.066 82.771 212.811 100.587 194.995" stroke="#62C5F7" stroke-width="12.9451" stroke-linecap="round" stroke-linejoin="round"/>
<path d="M7 185.516C31.304 179.004 58.971 171.59 83.309 165.069" stroke="#F4B5DC" stroke-width="12.9451" stroke-linecap="round" stroke-linejoin="round"/>
<path d="M7 110.066C31.304 116.578 58.971 123.992 83.309 130.513" stroke="#62C5F7" stroke-width="12.9451" stroke-linecap="round" stroke-linejoin="round"/>
<path d="M44.725 44.725C62.516 62.516 82.771 82.771 100.587 100.587L44.725 44.725Z" fill="#00256D"/>
<path d="M44.725 44.725C62.516 62.516 82.771 82.771 100.587 100.587" stroke="#79F87C" stroke-width="12.9451" stroke-linecap="round" stroke-linejoin="round"/>
<path d="M110.066 7C116.578 31.304 123.992 58.971 130.513 83.309" stroke="#62C5F7" stroke-width="12.9451" stroke-linecap="round" stroke-linejoin="round"/>
<path d="M185.516 7C179.004 31.304 171.59 58.971 165.069 83.309" stroke="#FFFFA3" stroke-width="12.9451" stroke-linecap="round" stroke-linejoin="round"/>
<path d="M53.715 93.477C57.318 95.557 61.75 98.115 66.709 100.979" stroke="#F4B5DC" stroke-width="14.681" stroke-linecap="round" stroke-linejoin="round"/>
<path d="M241.867 93.477C238.264 95.557 233.832 98.115 228.873 100.979" stroke="#FFFFA3" stroke-width="14.681" stroke-linecap="round" stroke-linejoin="round"/>
<path d="M256.421 147.791C252.261 147.791 247.143 147.791 241.417 147.791" stroke="#F4B5DC" stroke-width="14.681" stroke-linecap="round" stroke-linejoin="round"/>
<path d="M241.867 202.105C238.264 200.026 233.832 197.467 228.873 194.603" stroke="#62C5F7" stroke-width="14.681" stroke-linecap="round" stroke-linejoin="round"/>
<path d="M202.105 241.867C200.026 238.264 197.467 233.832 194.603 228.873" stroke="#E14646" stroke-width="14.681" stroke-linecap="round" stroke-linejoin="round"/>
<path d="M147.791 256.421C147.791 252.261 147.791 247.143 147.791 241.417" stroke="#F4B5DC" stroke-width="14.681" stroke-linecap="round" stroke-linejoin="round"/>
<path d="M93.477 241.867C95.556 238.264 98.115 233.832 100.979 228.873" stroke="#E14646" stroke-width="14.681" stroke-linecap="round" stroke-linejoin="round"/>
<path d="M53.715 202.105C57.318 200.026 61.75 197.467 66.709 194.603" stroke="#FFFFA3" stroke-width="14.681" stroke-linecap="round" stroke-linejoin="round"/>
<path d="M39.161 147.791C43.321 147.791 48.439 147.791 54.165 147.791" stroke="#79F87C" stroke-width="14.681" stroke-linecap="round" stroke-linejoin="round"/>
<path d="M93.477 53.715C95.556 57.318 98.115 61.75 100.979 66.709" stroke="#FFFFA3" stroke-width="14.681" stroke-linecap="round" stroke-linejoin="round"/>
<path d="M147.791 39.161C147.791 43.321 147.791 48.439 147.791 54.165" stroke="#E14646" stroke-width="14.681" stroke-linecap="round" stroke-linejoin="round"/>
<path d="M202.105 53.715C200.026 57.318 197.467 61.75 194.603 66.709" stroke="#62C5F7" stroke-width="14.681" stroke-linecap="round" stroke-linejoin="round"/>
</svg>
